<svg width="23" height="15" viewBox="0 0 23 15" fill="none" xmlns="http://www.w3.org/2000/svg">
    <path fill-rule="evenodd" clip-rule="evenodd" d="M1.33514e-05 7.31353C1.33514e-05 7.09804 0.0856152 6.89138 0.237988 6.739C0.390362 6.58663 0.597025 6.50103 0.812513 6.50103H19.9761L14.8623 1.38878C14.7867 1.31323 14.7268 1.22355 14.6859 1.12485C14.645 1.02615 14.624 0.92036 14.624 0.813526C14.624 0.706693 14.645 0.600905 14.6859 0.502203C14.7268 0.403502 14.7867 0.313819 14.8623 0.238276C14.9378 0.162733 15.0275 0.10281 15.1262 0.0619261C15.2249 0.0210425 15.3307 0 15.4375 0C15.5443 0 15.6501 0.0210425 15.7488 0.0619261C15.8475 0.10281 15.9372 0.162733 16.0128 0.238276L22.5128 6.73828C22.5884 6.81375 22.6485 6.90341 22.6894 7.00212C22.7304 7.10083 22.7515 7.20665 22.7515 7.31353C22.7515 7.4204 22.7304 7.52622 22.6894 7.62493C22.6485 7.72364 22.5884 7.8133 22.5128 7.88878L16.0128 14.3888C15.9372 14.4643 15.8475 14.5242 15.7488 14.5651C15.6501 14.606 15.5443 14.6271 15.4375 14.6271C15.3307 14.6271 15.2249 14.606 15.1262 14.5651C15.0275 14.5242 14.9378 14.4643 14.8623 14.3888C14.7867 14.3132 14.7268 14.2236 14.6859 14.1248C14.645 14.0261 14.624 13.9204 14.624 13.8135C14.624 13.7067 14.645 13.6009 14.6859 13.5022C14.7268 13.4035 14.7867 13.3138 14.8623 13.2383L19.9761 8.12603H0.812513C0.597025 8.12603 0.390362 8.04042 0.237988 7.88805C0.0856152 7.73568 1.33514e-05 7.52901 1.33514e-05 7.31353Z" fill="#F2A900"/>
</svg>
