<svg width="50" height="50" viewBox="0 0 50 50" fill="none" xmlns="http://www.w3.org/2000/svg">
    <g filter="url(#filter0_d)">
        <path fill-rule="evenodd" clip-rule="evenodd" d="M5 21C5 10.5066 13.5066 2 24 2C34.4934 2 43 10.5066 43 21C43 31.4934 34.4934 40 24 40C13.5066 40 5 31.4934 5 21Z" fill="#F2A900"/>
        <path fill-rule="evenodd" clip-rule="evenodd" d="M24.5759 12.3636C23.6219 12.3636 22.8486 13.137 22.8486 14.0909V19.8485H17.091C16.1371 19.8485 15.3638 20.6218 15.3638 21.5758C15.3638 22.5297 16.1371 23.303 17.091 23.303H22.8486V29.0606C22.8486 30.0146 23.6219 30.7879 24.5759 30.7879C25.5298 30.7879 26.3032 30.0146 26.3032 29.0606V23.303H32.0607C33.0147 23.303 33.788 22.5297 33.788 21.5758C33.788 20.6218 33.0147 19.8485 32.0607 19.8485H26.3032V14.0909C26.3032 13.137 25.5298 12.3636 24.5759 12.3636Z" fill="white"/>
    </g>
    <defs>
        <filter id="filter0_d" x="0" y="0" width="50" height="50" filterUnits="userSpaceOnUse" color-interpolation-filters="sRGB">
            <feFlood flood-opacity="0" result="BackgroundImageFix"/>
            <feColorMatrix in="SourceAlpha" type="matrix" values="0 0 0 0 0 0 0 0 0 0 0 0 0 0 0 0 0 0 127 0" result="hardAlpha"/>
            <feOffset dx="1" dy="4"/>
            <feGaussianBlur stdDeviation="3"/>
            <feColorMatrix type="matrix" values="0 0 0 0 0.590729 0 0 0 0 0.436293 0 0 0 0 0.0787639 0 0 0 0.3 0"/>
            <feBlend mode="normal" in2="BackgroundImageFix" result="effect1_dropShadow"/>
            <feBlend mode="normal" in="SourceGraphic" in2="effect1_dropShadow" result="shape"/>
        </filter>
    </defs>
</svg>
