<svg width="15" height="8" viewBox="0 0 15 8" fill="none" xmlns="http://www.w3.org/2000/svg">
    <path d="M0.0352106 1.01805C0.0347538 0.780595 0.116129 0.550478 0.26521 0.367641C0.349159 0.264736 0.452261 0.179674 0.568608 0.117324C0.684956 0.054975 0.812262 0.0165643 0.943238 0.00429209C1.07421 -0.0079801 1.20629 0.0061276 1.33189 0.0458068C1.45749 0.0854861 1.57416 0.149957 1.67521 0.235527L7.03521 4.78836L12.4052 0.398129C12.5075 0.313713 12.6252 0.250673 12.7515 0.212632C12.8779 0.174592 13.0104 0.162302 13.1414 0.176468C13.2724 0.190633 13.3994 0.230976 13.515 0.295176C13.6307 0.359377 13.7327 0.446171 13.8152 0.550568C13.9063 0.655716 13.9749 0.778851 14.0169 0.912247C14.0589 1.04564 14.0733 1.18642 14.0592 1.32574C14.0451 1.46506 14.0029 1.59992 13.9351 1.72186C13.8673 1.84379 13.7754 1.95016 13.6652 2.0343L7.66521 6.94282C7.48628 7.0923 7.26184 7.17401 7.03021 7.17401C6.79859 7.17401 6.57415 7.0923 6.39521 6.94282L0.395211 1.86154C0.274194 1.75959 0.17853 1.63009 0.115981 1.48353C0.0534325 1.33698 0.0257597 1.1775 0.0352106 1.01805Z" fill="#115E67" fill-opacity="0.8"/>
</svg>
