<svg width="24" height="13" viewBox="0 0 24 13" fill="none" xmlns="http://www.w3.org/2000/svg">
    <path d="M19.5368 4.8311L17.5089 9.36234H16.8816L17.6351 7.77667L16.3 4.83061H16.9598L17.9259 7.0887H17.9386L18.8741 4.83061L19.5368 4.8311ZM11.1114 6.23227V8.06797H10.4739V3.53673H12.1605C12.5609 3.52576 12.9508 3.6656 13.2529 3.92854C13.5515 4.17372 13.7156 4.52037 13.7108 4.88693C13.7128 5.0714 13.6726 5.25389 13.5933 5.42043C13.5139 5.58697 13.3975 5.73314 13.2529 5.84775C12.9597 6.10555 12.5955 6.23227 12.1605 6.23227H11.1114ZM11.1089 4.09555V5.67588H12.1761C12.4084 5.68421 12.6346 5.60066 12.8058 5.44332C12.9704 5.2967 13.0611 5.09667 13.0611 4.88936C13.0611 4.67962 12.9699 4.47959 12.8058 4.33539C12.722 4.25562 12.6231 4.1933 12.515 4.15204C12.4069 4.11079 12.2917 4.09142 12.1761 4.09507L11.1089 4.09555ZM14.9876 4.8311C15.3921 4.8311 15.7135 4.9447 15.9485 5.16998C16.1834 5.39526 16.3 5.70355 16.3 6.09536V7.96893H15.7742V7.54654H15.7513C15.5236 7.89319 15.2226 8.06749 14.8459 8.06749C14.522 8.06749 14.254 7.96893 14.0365 7.7689C13.9316 7.67601 13.8481 7.56143 13.7917 7.43309C13.7354 7.30476 13.7076 7.16572 13.7103 7.02559C13.7103 6.71195 13.8239 6.46191 14.054 6.27451C14.2817 6.09002 14.5876 5.99631 14.9692 5.99631C15.2955 5.99631 15.5635 6.05943 15.7732 6.18323V6.05166C15.7739 5.95615 15.7541 5.8616 15.7153 5.77435C15.6764 5.6871 15.6194 5.60916 15.5479 5.54576C15.404 5.41107 15.2139 5.33685 15.0168 5.33845C14.7109 5.33845 14.4682 5.47245 14.2885 5.74045L13.8054 5.42681C14.071 5.02967 14.4652 4.83012 14.9862 4.83012L14.9876 4.8311ZM14.2773 7.0387C14.2763 7.11064 14.2922 7.18183 14.3238 7.24646C14.3555 7.31108 14.4019 7.36732 14.4594 7.4106C14.5808 7.50915 14.7328 7.56256 14.8867 7.55965C15.1168 7.55965 15.3392 7.46352 15.5037 7.29407C15.678 7.1324 15.7771 6.9047 15.7771 6.6668C15.6052 6.52503 15.3673 6.45415 15.0614 6.45415C14.8362 6.45415 14.6517 6.50998 14.5026 6.62116C14.3536 6.73477 14.2773 6.87168 14.2773 7.03821V7.0387ZM6.64323 3.53673C7.29691 3.52885 7.92904 3.77035 8.41096 4.21207L7.65745 4.95053C7.38219 4.69515 7.01864 4.55645 6.64323 4.56358C6.31562 4.56518 5.99665 4.66881 5.73066 4.86006C5.46467 5.05131 5.26487 5.32068 5.15903 5.63073C5.04783 5.95184 5.04783 6.30102 5.15903 6.62213C5.26487 6.93218 5.46467 7.20154 5.73066 7.39279C5.99665 7.58404 6.31562 7.68767 6.64323 7.68928C6.99959 7.68928 7.30595 7.60092 7.54336 7.4441C7.67995 7.35515 7.797 7.23933 7.8874 7.1037C7.97779 6.96806 8.03964 6.81545 8.06916 6.65515H6.64274V5.65889H9.13339C9.16398 5.83318 9.17903 6.00797 9.17903 6.18469C9.17903 6.97364 8.89064 7.64121 8.39251 8.09128C7.95507 8.486 7.35595 8.71564 6.64274 8.71564C6.15593 8.71812 5.67786 8.58628 5.26114 8.33462C4.84441 8.08295 4.50518 7.72122 4.28075 7.28922C4.09623 6.92921 4 6.53048 4 6.12594C4 5.72141 4.09623 5.32267 4.28075 4.96267C4.50491 4.53107 4.84368 4.1696 5.25985 3.91796C5.67602 3.66632 6.1535 3.53425 6.63983 3.53625L6.64323 3.53673Z" fill="#979797"/>
    <rect x="0.5" y="1.03613" width="22.3043" height="10.6522" rx="1.5" stroke="#979797"/>
</svg>
