<svg width="24" height="13" viewBox="0 0 24 13" fill="none" xmlns="http://www.w3.org/2000/svg">
    <g clip-path="url(#clip0)">
        <path d="M6.72359 4.83167C6.54104 5.04918 6.25022 5.22154 5.95989 5.19629C5.92153 4.90304 6.06621 4.58892 6.23323 4.39423C6.41529 4.17236 6.73378 4.01311 6.99207 4C7.02266 4.30636 6.90323 4.60737 6.72407 4.83167H6.72359ZM6.98916 5.25407C6.56726 5.22833 6.20507 5.49633 6.00504 5.49633C5.80064 5.49633 5.49428 5.26669 5.16074 5.27446C4.72815 5.2798 4.32373 5.52692 4.10379 5.92455C3.64596 6.71544 3.98484 7.88649 4.42471 8.53124C4.63979 8.84973 4.89711 9.19881 5.23648 9.1891C5.5574 9.17599 5.68655 8.97693 6.0735 8.97693C6.4653 8.97693 6.57648 9.1891 6.91828 9.18133C7.2693 9.17599 7.49166 8.86284 7.70674 8.54435C7.95192 8.18265 8.05291 7.82823 8.05825 7.81075C8.05291 7.80298 7.37805 7.54275 7.3732 6.75865C7.36786 6.10079 7.90386 5.78764 7.92668 5.76967C7.62566 5.31475 7.15035 5.26669 6.98868 5.25455L6.98916 5.25407ZM9.42447 4.36365V9.14832H10.16V7.51265H11.1771C12.105 7.51265 12.7575 6.86789 12.7575 5.93717C12.7575 5.00451 12.1181 4.36413 11.2024 4.36413L9.42447 4.36365ZM10.16 4.99092H11.0072C11.6442 4.99092 12.0088 5.33466 12.0088 5.93912C12.0088 6.54357 11.6442 6.89022 11.0024 6.89022H10.16V4.99092ZM14.097 9.18376C14.5597 9.18376 14.9869 8.94878 15.1821 8.57396H15.1976V9.14832H15.8773V6.76593C15.8773 6.07846 15.3316 5.6313 14.4893 5.6313C13.7105 5.6313 13.1337 6.0838 13.1138 6.7033H13.7736C13.8295 6.40763 14.0975 6.21537 14.4694 6.21537C14.9194 6.21537 15.17 6.42754 15.17 6.8174V7.08006L14.2548 7.13589C13.3998 7.18881 12.9395 7.54032 12.9395 8.15497C12.9395 8.77448 13.4153 9.18425 14.0975 9.18425L14.097 9.18376ZM14.297 8.61717C13.9047 8.61717 13.6547 8.42734 13.6547 8.13701C13.6547 7.83599 13.895 7.65878 14.3524 7.63062L15.1695 7.58013V7.85056C15.1695 8.29868 14.7927 8.61717 14.2941 8.61717H14.297ZM16.7852 10.4504C17.5004 10.4504 17.8373 10.1723 18.1306 9.33524L19.4201 5.67888H18.6744L17.8097 8.50308H17.7941L16.9294 5.67888H16.1609L17.4052 9.16094L17.3392 9.37311C17.2251 9.72996 17.0435 9.86833 16.7197 9.86833C16.6614 9.86833 16.5503 9.86104 16.5046 9.85619V10.4305C16.5473 10.4427 16.7299 10.448 16.7828 10.448L16.7852 10.4504Z" fill="#979797"/>
    </g>
    <rect x="0.5" y="1.5" width="22.3043" height="10.6522" rx="1.5" stroke="#979797"/>
    <defs>
        <clipPath id="clip0">
            <rect width="15.5362" height="15.5362" fill="white" transform="translate(3.88379)"/>
        </clipPath>
    </defs>
</svg>
