<svg width="21" height="23" viewBox="0 0 21 23" fill="none" xmlns="http://www.w3.org/2000/svg">
    <path d="M12.5455 3.48485C12.5455 2.9303 12.3252 2.39847 11.933 2.00635C11.5409 1.61423 11.0091 1.39394 10.4545 1.39394C9.9 1.39394 9.36817 1.61423 8.97605 2.00635C8.58393 2.39847 8.36364 2.9303 8.36364 3.48485H6.9697C6.9697 2.56061 7.33685 1.67422 7.99039 1.02069C8.64392 0.367153 9.53031 0 10.4545 0C11.3788 0 12.2652 0.367153 12.9187 1.02069C13.5722 1.67422 13.9394 2.56061 13.9394 3.48485H20.2121C20.397 3.48485 20.5742 3.55828 20.705 3.68899C20.8357 3.81969 20.9091 3.99697 20.9091 4.18182C20.9091 4.36667 20.8357 4.54394 20.705 4.67465C20.5742 4.80536 20.397 4.87879 20.2121 4.87879H19.4399L17.6333 20.5327C17.5547 21.2121 17.229 21.8389 16.7183 22.2938C16.2076 22.7488 15.5475 23.0001 14.8636 23H6.04552C5.36158 23.0001 4.70146 22.7488 4.19076 22.2938C3.68006 21.8389 3.35441 21.2121 3.27576 20.5327L1.46782 4.87879H0.69697C0.533843 4.87884 0.375866 4.82168 0.250548 4.71724C0.125231 4.61281 0.0405141 4.46773 0.0111514 4.30727L0 4.18182C0 3.99697 0.0734307 3.81969 0.204138 3.68899C0.334845 3.55828 0.512122 3.48485 0.69697 3.48485H12.5455ZM18.0348 4.87879H2.87291L4.65994 20.3724C4.69928 20.7122 4.86221 21.0257 5.1177 21.2532C5.3732 21.4807 5.70343 21.6063 6.04552 21.6061H14.8636C15.2054 21.6059 15.5353 21.4802 15.7905 21.2528C16.0457 21.0253 16.2084 20.712 16.2478 20.3724L18.0348 4.87879ZM8.36364 8.36364C8.70515 8.36364 8.99091 8.5797 9.04945 8.86406L9.06061 8.97418V17.5121C9.06061 17.848 8.74836 18.1212 8.36364 18.1212C8.02212 18.1212 7.73636 17.9052 7.67782 17.6208L7.66667 17.5107V8.97558C7.66667 8.63824 7.97891 8.36503 8.36364 8.36503V8.36364ZM12.5455 8.36364C12.887 8.36364 13.1727 8.5797 13.2313 8.86406L13.2424 8.97418V17.5121C13.2424 17.848 12.9302 18.1212 12.5455 18.1212C12.2039 18.1212 11.9182 17.9052 11.8596 17.6208L11.8485 17.5107V8.97558C11.8485 8.63824 12.1607 8.36503 12.5455 8.36503V8.36364Z" fill="#F2A900" fill-opacity="0.7"/>
</svg>
