<svg width="14" height="18" viewBox="0 0 14 18" fill="none" xmlns="http://www.w3.org/2000/svg">
    <path d="M3.9375 7.875C3.78832 7.875 3.64524 7.93426 3.53975 8.03975C3.43426 8.14524 3.375 8.28832 3.375 8.4375C3.375 8.58668 3.43426 8.72976 3.53975 8.83525C3.64524 8.94074 3.78832 9 3.9375 9H9.5625C9.71168 9 9.85476 8.94074 9.96025 8.83525C10.0657 8.72976 10.125 8.58668 10.125 8.4375C10.125 8.28832 10.0657 8.14524 9.96025 8.03975C9.85476 7.93426 9.71168 7.875 9.5625 7.875H3.9375ZM3.375 10.6875C3.375 10.5383 3.43426 10.3952 3.53975 10.2898C3.64524 10.1843 3.78832 10.125 3.9375 10.125H9.5625C9.71168 10.125 9.85476 10.1843 9.96025 10.2898C10.0657 10.3952 10.125 10.5383 10.125 10.6875C10.125 10.8367 10.0657 10.9798 9.96025 11.0852C9.85476 11.1907 9.71168 11.25 9.5625 11.25H3.9375C3.78832 11.25 3.64524 11.1907 3.53975 11.0852C3.43426 10.9798 3.375 10.8367 3.375 10.6875ZM3.375 12.9375C3.375 12.7883 3.43426 12.6452 3.53975 12.5398C3.64524 12.4343 3.78832 12.375 3.9375 12.375H6.1875C6.33668 12.375 6.47976 12.4343 6.58525 12.5398C6.69074 12.6452 6.75 12.7883 6.75 12.9375C6.75 13.0867 6.69074 13.2298 6.58525 13.3352C6.47976 13.4407 6.33668 13.5 6.1875 13.5H3.9375C3.78832 13.5 3.64524 13.4407 3.53975 13.3352C3.43426 13.2298 3.375 13.0867 3.375 12.9375Z" fill="#115E67" fill-opacity="0.7"/>
    <path d="M8.4375 0H2.25C1.65326 0 1.08097 0.237053 0.65901 0.65901C0.237053 1.08097 0 1.65326 0 2.25V15.75C0 16.3467 0.237053 16.919 0.65901 17.341C1.08097 17.7629 1.65326 18 2.25 18H11.25C11.8467 18 12.419 17.7629 12.841 17.341C13.2629 16.919 13.5 16.3467 13.5 15.75V5.0625L8.4375 0ZM8.4375 1.125V3.375C8.4375 3.82255 8.61529 4.25178 8.93176 4.56824C9.24822 4.88471 9.67745 5.0625 10.125 5.0625H12.375V15.75C12.375 16.0484 12.2565 16.3345 12.0455 16.5455C11.8345 16.7565 11.5484 16.875 11.25 16.875H2.25C1.95163 16.875 1.66548 16.7565 1.4545 16.5455C1.24353 16.3345 1.125 16.0484 1.125 15.75V2.25C1.125 1.95163 1.24353 1.66548 1.4545 1.4545C1.66548 1.24353 1.95163 1.125 2.25 1.125H8.4375Z" fill="#115E67" fill-opacity="0.7"/>
</svg>
