<svg width="18" height="18" viewBox="0 0 18 18" fill="none" xmlns="http://www.w3.org/2000/svg">
    <path d="M12.595 10.2C12.7386 9.81629 12.8114 9.40971 12.81 9.00001C12.81 8.09031 12.4486 7.21788 11.8054 6.57463C11.1621 5.93138 10.2897 5.57001 9.38 5.57001C8.97534 5.57048 8.57403 5.64329 8.195 5.78501L9 6.61501C9.12237 6.59543 9.24608 6.5854 9.37 6.58501C10.0132 6.58366 10.6308 6.83688 11.088 7.28935C11.5452 7.74183 11.8047 8.35681 11.81 9.00001C11.8096 9.12393 11.7996 9.24764 11.78 9.37001L12.595 10.2Z" fill="#FF4A3E" fill-opacity="0.6"/>
    <path d="M17.145 8.76501C15.46 5.65001 12.505 3.76501 9.235 3.76501C8.34467 3.7671 7.46033 3.91056 6.615 4.19001L7.42 5.00001C8.01292 4.84678 8.6226 4.76784 9.235 4.76501C12.05 4.76501 14.61 6.33501 16.135 8.98001C15.5756 9.96132 14.834 10.8268 13.95 11.53L14.66 12.24C15.683 11.4147 16.5327 10.3951 17.16 9.24001L17.29 9.00001L17.145 8.76501Z" fill="#FF4A3E" fill-opacity="0.6"/>
    <path d="M2.435 2.89002L4.665 5.12002C3.25546 6.02758 2.10345 7.2829 1.32 8.76502L1.19 9.00002L1.32 9.24002C3.005 12.355 5.96 14.24 9.23 14.24C10.5063 14.2398 11.7661 13.9509 12.915 13.395L15.415 15.895L16.29 15.145L3.29 2.14502L2.435 2.89002ZM7.31 7.76502L10.635 11.09C10.2593 11.3226 9.82683 11.4471 9.385 11.45C9.06397 11.45 8.7461 11.3865 8.44969 11.2632C8.15328 11.1399 7.88418 10.9592 7.65787 10.7315C7.43156 10.5038 7.25252 10.2336 7.13103 9.93646C7.00955 9.6393 6.94802 9.32105 6.95 9.00002C6.95564 8.5633 7.08009 8.13636 7.31 7.76502ZM6.585 7.04002C6.11722 7.69972 5.89796 8.50367 5.96606 9.30951C6.03415 10.1154 6.38521 10.8711 6.95706 11.443C7.52891 12.0148 8.28466 12.3659 9.09051 12.434C9.89635 12.5021 10.7003 12.2828 11.36 11.815L12.16 12.615C11.2339 13.0109 10.2372 13.215 9.23 13.215C6.415 13.215 3.855 11.645 2.33 9.00002C3.06186 7.70413 4.11586 6.61912 5.39 5.85002L6.585 7.04002Z" fill="#FF4A3E" fill-opacity="0.6"/>
</svg>
