<svg width="18" height="18" viewBox="0 0 18 18" fill="none" xmlns="http://www.w3.org/2000/svg">
    <path d="M12.595 10.2C12.7386 9.81628 12.8114 9.40971 12.81 9C12.81 8.09031 12.4486 7.21787 11.8054 6.57462C11.1621 5.93137 10.2897 5.57 9.38 5.57C8.97534 5.57047 8.57403 5.64328 8.195 5.785L9 6.615C9.12237 6.59542 9.24608 6.58539 9.37 6.585C10.0132 6.58366 10.6308 6.83687 11.088 7.28935C11.5452 7.74182 11.8047 8.3568 11.81 9C11.8096 9.12392 11.7996 9.24763 11.78 9.37L12.595 10.2Z" fill="#115E67" fill-opacity="0.6"/>
    <path d="M17.145 8.765C15.46 5.65 12.505 3.765 9.235 3.765C8.34467 3.76709 7.46033 3.91054 6.615 4.19L7.42 5C8.01292 4.84676 8.6226 4.76783 9.235 4.765C12.05 4.765 14.61 6.335 16.135 8.98C15.5756 9.9613 14.834 10.8268 13.95 11.53L14.66 12.24C15.683 11.4147 16.5327 10.3951 17.16 9.24L17.29 9L17.145 8.765Z" fill="#115E67" fill-opacity="0.6"/>
    <path d="M2.435 2.89L4.665 5.12C3.25546 6.02756 2.10345 7.28289 1.32 8.765L1.19 9L1.32 9.24C3.005 12.355 5.96 14.24 9.23 14.24C10.5063 14.2397 11.7661 13.9509 12.915 13.395L15.415 15.895L16.29 15.145L3.29 2.145L2.435 2.89ZM7.31 7.765L10.635 11.09C10.2593 11.3225 9.82683 11.4471 9.385 11.45C9.06397 11.45 8.7461 11.3865 8.44969 11.2632C8.15328 11.1399 7.88418 10.9592 7.65787 10.7315C7.43156 10.5038 7.25252 10.2336 7.13103 9.93644C7.00955 9.63928 6.94802 9.32103 6.95 9C6.95564 8.56328 7.08009 8.13634 7.31 7.765ZM6.585 7.04C6.11722 7.6997 5.89796 8.50365 5.96606 9.30949C6.03415 10.1153 6.38521 10.8711 6.95706 11.4429C7.52891 12.0148 8.28466 12.3658 9.09051 12.4339C9.89635 12.502 10.7003 12.2828 11.36 11.815L12.16 12.615C11.2339 13.0109 10.2372 13.215 9.23 13.215C6.415 13.215 3.855 11.645 2.33 9C3.06186 7.70411 4.11586 6.6191 5.39 5.85L6.585 7.04Z" fill="#115E67" fill-opacity="0.6"/>
</svg>

