<svg width="26" height="26" viewBox="0 0 26 26" fill="none" xmlns="http://www.w3.org/2000/svg">
    <circle cx="13" cy="13" r="13" fill="#115E67"/>
    <path d="M8.58008 9.95605H11.1816C11.2168 9.05078 11.8496 8.45312 12.7812 8.45312C13.7041 8.45312 14.3369 8.99805 14.3369 9.75391C14.3369 10.5537 14.0029 10.9492 12.8428 11.6348C11.6299 12.3467 11.1641 13.1377 11.3047 14.5879L11.3223 15.001H13.8359V14.5703C13.8359 13.7266 14.1699 13.3223 15.3564 12.6279C16.6133 11.8896 17.2373 10.9844 17.2373 9.6748C17.2373 7.60059 15.541 6.20312 12.957 6.20312C10.2061 6.20312 8.61523 7.70605 8.58008 9.95605ZM12.667 19.29C13.7217 19.29 14.3545 18.71 14.3545 17.7432C14.3545 16.7676 13.7217 16.1875 12.667 16.1875C11.6123 16.1875 10.9707 16.7676 10.9707 17.7432C10.9707 18.71 11.6123 19.29 12.667 19.29Z" fill="white"/>
</svg>
