<svg width="18" height="18" viewBox="0 0 18 18" fill="none" xmlns="http://www.w3.org/2000/svg">
    <path d="M11.25 6.1875V4.78125C11.25 4.40829 11.1018 4.0506 10.8381 3.78688C10.5744 3.52316 10.2167 3.375 9.84375 3.375H3.09375C2.72079 3.375 2.3631 3.52316 2.09938 3.78688C1.83566 4.0506 1.6875 4.40829 1.6875 4.78125V13.2188C1.6875 13.5917 1.83566 13.9494 2.09938 14.2131C2.3631 14.4768 2.72079 14.625 3.09375 14.625H9.84375C10.2167 14.625 10.5744 14.4768 10.8381 14.2131C11.1018 13.9494 11.25 13.5917 11.25 13.2188V11.8125" stroke="#858585" stroke-linecap="round" stroke-linejoin="round"/>
    <path d="M13.5 6.1875L16.3125 9L13.5 11.8125" stroke="#858585" stroke-linecap="round" stroke-linejoin="round"/>
    <path d="M6.71484 9H16.3125" stroke="#858585" stroke-linecap="round" stroke-linejoin="round"/>
</svg>
