<svg width="18" height="18" viewBox="0 0 18 18" fill="none" xmlns="http://www.w3.org/2000/svg">
    <path d="M8.99991 17.14C9.31488 17.1327 9.61714 17.0143 9.85321 16.8057C10.0893 16.5971 10.244 16.3117 10.2899 16H7.65991C7.70715 16.3202 7.86907 16.6123 8.11556 16.822C8.36205 17.0317 8.67632 17.1447 8.99991 17.14Z" fill="#858585"/>
    <path d="M16.2549 13.915C15.7727 13.4851 15.3506 12.9924 14.9999 12.45C14.617 11.7012 14.3875 10.8836 14.3249 10.045V7.57495C14.3229 7.27493 14.2961 6.97558 14.2449 6.67995C13.8514 6.60128 13.4731 6.45945 13.1249 6.25995C13.2576 6.68737 13.3251 7.13239 13.3249 7.57995V10.05C13.3862 11.073 13.6676 12.0707 14.1499 12.975C14.4951 13.522 14.9047 14.0256 15.3699 14.475H2.5649C3.03011 14.0256 3.4397 13.522 3.7849 12.975C4.26721 12.0707 4.54862 11.073 4.6099 10.05V7.57495C4.60727 6.99629 4.71881 6.4228 4.93812 5.88731C5.15744 5.35182 5.48023 4.86485 5.88801 4.45428C6.29579 4.04372 6.78055 3.71762 7.31454 3.49466C7.84852 3.2717 8.42124 3.15626 8.9999 3.15495C9.84678 3.15563 10.6747 3.40608 11.3799 3.87495C11.3022 3.58944 11.2585 3.29573 11.2499 2.99995V2.68495C10.7278 2.42813 10.167 2.2592 9.5899 2.18495V1.55495C9.5899 1.37792 9.51958 1.20814 9.3944 1.08296C9.26921 0.957777 9.09943 0.887451 8.9224 0.887451C8.74537 0.887451 8.57559 0.957777 8.45041 1.08296C8.32523 1.20814 8.2549 1.37792 8.2549 1.55495V2.20995C6.96276 2.39223 5.78019 3.03582 4.92551 4.02192C4.07084 5.00801 3.60177 6.27002 3.6049 7.57495V10.045C3.54228 10.8836 3.31279 11.7012 2.9299 12.45C2.58534 12.9911 2.17 13.4838 1.6949 13.915C1.64157 13.9618 1.59882 14.0195 1.56951 14.0841C1.5402 14.1488 1.52499 14.219 1.5249 14.29V14.97C1.5249 15.1026 1.57758 15.2297 1.67135 15.3235C1.76512 15.4173 1.89229 15.47 2.0249 15.47H15.9249C16.0575 15.47 16.1847 15.4173 16.2785 15.3235C16.3722 15.2297 16.4249 15.1026 16.4249 14.97V14.29C16.4248 14.219 16.4096 14.1488 16.3803 14.0841C16.351 14.0195 16.3082 13.9618 16.2549 13.915Z" fill="#858585"/>
    <path d="M15 5.5C16.3807 5.5 17.5 4.38071 17.5 3C17.5 1.61929 16.3807 0.5 15 0.5C13.6193 0.5 12.5 1.61929 12.5 3C12.5 4.38071 13.6193 5.5 15 5.5Z" fill="#858585"/>
</svg>
