<svg width="17" height="17" viewBox="0 0 17 17" fill="none" xmlns="http://www.w3.org/2000/svg">
    <path d="M15.9161 12.1901V14.4401C15.9169 14.6489 15.8741 14.8557 15.7905 15.0471C15.7068 15.2385 15.5841 15.4103 15.4301 15.5515C15.2762 15.6927 15.0945 15.8002 14.8966 15.8671C14.6988 15.934 14.4891 15.9589 14.2811 15.9401C11.9732 15.6893 9.75634 14.9007 7.80859 13.6376C5.99646 12.4861 4.46009 10.9497 3.30859 9.13757C2.04107 7.18098 1.25227 4.95332 1.00609 2.63507C0.987345 2.42767 1.01199 2.21864 1.07846 2.02129C1.14493 1.82394 1.25177 1.64259 1.39216 1.48879C1.53256 1.33499 1.70344 1.2121 1.89393 1.12796C2.08442 1.04382 2.29034 1.00027 2.49859 1.00007H4.74859C5.11257 0.99649 5.46543 1.12538 5.74141 1.36272C6.01739 1.60006 6.19765 1.92966 6.24859 2.29007C6.34355 3.01012 6.51968 3.71712 6.77359 4.39757C6.8745 4.66602 6.89633 4.95776 6.83652 5.23823C6.7767 5.51871 6.63773 5.77616 6.43609 5.98007L5.48359 6.93257C6.55125 8.81023 8.10593 10.3649 9.98359 11.4326L10.9361 10.4801C11.14 10.2784 11.3975 10.1395 11.6779 10.0796C11.9584 10.0198 12.2501 10.0417 12.5186 10.1426C13.199 10.3965 13.906 10.5726 14.6261 10.6676C14.9904 10.719 15.3231 10.9025 15.561 11.1832C15.7988 11.4639 15.9252 11.8223 15.9161 12.1901Z" stroke="#F2A900" stroke-opacity="0.9" stroke-linecap="round" stroke-linejoin="round"/>
</svg>
