<svg width="18" height="22" viewBox="0 0 18 22" fill="none" xmlns="http://www.w3.org/2000/svg">
    <path d="M17.4249 11.74L16.5916 11.11V10.89L17.4046 10.26C17.5672 10.14 17.6078 9.92 17.5062 9.75L16.6424 8.27C16.6068 8.20831 16.555 8.15718 16.4924 8.12199C16.4298 8.0868 16.3587 8.06884 16.2867 8.07C16.2359 8.07 16.185 8.08 16.1342 8.1L15.1688 8.48C15.0875 8.43 15.057 8.41 14.9757 8.37L14.8233 7.36C14.8114 7.26167 14.7637 7.17094 14.6889 7.1047C14.6141 7.03847 14.5174 7.00125 14.4168 7H12.6789C12.4757 7 12.3029 7.15 12.2724 7.34L12.1302 8.35C12.0997 8.37 12.059 8.38 12.0285 8.4L11.9371 8.46L10.9716 8.08C10.8804 8.04298 10.7786 8.0398 10.6851 8.07107C10.5917 8.10233 10.5129 8.16592 10.4635 8.25L9.59968 9.73C9.49806 9.9 9.53871 10.12 9.70131 10.24L10.5143 10.87V11.1L9.70131 11.73C9.62363 11.7879 9.57033 11.8718 9.55158 11.9659C9.53284 12.06 9.54996 12.1576 9.59968 12.24L10.4635 13.72C10.5346 13.85 10.6769 13.92 10.8192 13.92C10.87 13.92 10.9208 13.91 10.9716 13.89L11.9371 13.52C12.0184 13.57 12.059 13.59 12.1403 13.63L12.2928 14.64C12.3233 14.84 12.496 14.98 12.6993 14.98H14.4371C14.6403 14.98 14.8131 14.83 14.8436 14.64L14.996 13.63C15.0265 13.61 15.0672 13.6 15.0976 13.58L15.1891 13.52L16.1546 13.9C16.2458 13.937 16.3476 13.9402 16.4411 13.9089C16.5345 13.8777 16.6133 13.8141 16.6627 13.73L17.5265 12.25C17.5762 12.1676 17.5934 12.07 17.5746 11.9759C17.5559 11.8818 17.5026 11.7979 17.4249 11.74ZM13.5529 12.5C12.7094 12.5 12.0285 11.83 12.0285 11C12.0285 10.17 12.7094 9.5 13.5529 9.5C14.3964 9.5 15.0773 10.17 15.0773 11C15.0773 11.83 14.3964 12.5 13.5529 12.5ZM12.5367 16H14.5692V20C14.5692 21.1 13.6546 22 12.5367 22H2.37407C1.25619 22 0.341553 21.1 0.341553 20V2C0.341553 0.9 1.25619 0 2.37407 0H12.5367C13.6546 0 14.5692 0.9 14.5692 2V6H12.5367V5H2.37407V17H12.5367V16Z" fill="#F2A900" fill-opacity="0.9"/>
</svg>
