<svg width="39" height="13" viewBox="0 0 39 13" fill="none" xmlns="http://www.w3.org/2000/svg">
    <path d="M28.3481 1.00957C27.4405 0.681467 26.4821 0.516026 25.517 0.520855C22.4006 0.520855 20.1983 2.09548 20.1849 4.34895C20.1593 6.00523 21.7462 6.93879 22.9454 7.49698C24.1776 8.06858 24.5895 8.42445 24.5834 8.93145C24.5773 9.71267 23.5987 10.0612 22.698 10.0612C21.4463 10.0612 20.7675 9.89061 19.7206 9.45186L19.3318 9.26782L18.8882 11.8711C19.6499 12.1819 21.0149 12.4549 22.4238 12.4804C25.7437 12.4804 27.9082 10.9192 27.9325 8.5122C27.9581 7.19229 27.1087 6.19048 25.2988 5.36417C24.2068 4.83157 23.5231 4.46839 23.5231 3.92239C23.5231 3.43976 24.1069 2.93276 25.3256 2.93276C26.1344 2.9125 26.9385 3.06153 27.6863 3.37029L27.9849 3.50314L28.4225 0.996168L28.3481 1.00957ZM36.4492 0.736574H34.0117C33.2499 0.736574 32.6844 0.940104 32.3481 1.69573L27.6632 12.3147H30.977L31.6448 10.5755L35.6874 10.5816C35.7886 10.9875 36.0738 12.3135 36.0738 12.3135H39L36.4492 0.736574ZM15.6975 0.641511H18.8528L16.8785 12.2245H13.7231L15.6975 0.635417V0.641511ZM7.67447 7.02045L7.99744 8.63286L11.0882 0.736574H14.4337L9.45628 12.2952H6.12544L3.39544 2.50742C3.37452 2.42611 3.33726 2.34992 3.28592 2.2835C3.23458 2.21708 3.17025 2.16181 3.09684 2.12107C2.11622 1.61104 1.07595 1.22498 0 0.971792L0.0377812 0.729262H5.1285C5.81466 0.754855 6.37284 0.971792 6.56297 1.70792L7.67447 7.02654V7.02045ZM32.5443 8.20751L33.8081 4.96442C33.7886 4.99489 34.0677 4.29776 34.2262 3.85901L34.4419 4.85473L35.1731 8.2002H32.5443V8.20751Z" fill="white" fill-opacity="0.76"/>
</svg>
