<svg width="8" height="16" viewBox="0 0 8 16" fill="none" xmlns="http://www.w3.org/2000/svg">
    <path d="M1.47972 14.9999C1.24227 15.0004 1.01215 14.919 0.829311 14.7699C0.726406 14.686 0.641344 14.5829 0.578994 14.4665C0.516645 14.3502 0.478234 14.2229 0.465962 14.0919C0.45369 13.9609 0.467798 13.8289 0.507477 13.7033C0.547156 13.5777 0.611626 13.461 0.697197 13.3599L5.25003 7.99994L0.859799 2.62994C0.775383 2.52765 0.712343 2.40996 0.674302 2.28362C0.636262 2.15728 0.623972 2.02479 0.638138 1.89376C0.652303 1.76273 0.692645 1.63575 0.756846 1.52011C0.821047 1.40447 0.907841 1.30246 1.01224 1.21994C1.11739 1.1289 1.24052 1.06024 1.37392 1.01825C1.50731 0.976258 1.64809 0.961855 1.78741 0.97594C1.92673 0.990024 2.06159 1.03229 2.18353 1.1001C2.30546 1.1679 2.41183 1.25977 2.49597 1.36994L7.40449 7.36994C7.55397 7.54888 7.63568 7.77332 7.63568 8.00494C7.63568 8.23657 7.55397 8.46101 7.40449 8.63994L2.32321 14.6399C2.22126 14.761 2.09176 14.8566 1.9452 14.9192C1.79865 14.9817 1.63917 15.0094 1.47972 14.9999Z" fill="#115E67" fill-opacity="0.8"/>
</svg>
