<svg width="19" height="22" viewBox="0 0 19 22" fill="none" xmlns="http://www.w3.org/2000/svg">
    <path d="M4.97313 9.93917H4.26269V11.3601H4.97313V9.93917ZM13.4985 11.3601H14.209V9.93917H13.4985V11.3601ZM4.97313 13.4985H4.26269V14.209H4.97313V13.4985ZM13.4985 13.4985V14.209H14.209V13.4985H13.4985ZM4.97313 7.81493V7.10448H4.26269V7.81493H4.97313ZM13.4985 7.81493H14.209V7.10448H13.4985V7.81493ZM17.7612 4.97313H18.4716V4.67901L18.2642 4.47014L17.7612 4.97313ZM13.4985 0.710448L14.0015 0.207451L13.7926 0H13.4985V0.710448ZM4.97313 11.3601H13.4985V9.93917H4.97313V11.3601ZM4.97313 14.209H13.4985V12.7881H4.97313V14.209ZM4.97313 8.52537H13.4985V7.10448H4.97313V8.52537ZM16.3403 19.8925H2.13134V21.3134H16.3403V19.8925ZM1.4209 19.1821V2.13134H0V19.1821H1.4209ZM17.0507 4.97313V19.1821H18.4716V4.97313H17.0507ZM2.13134 1.4209H13.4985V0H2.13134V1.4209ZM12.9955 1.21344L17.2582 5.47613L18.2642 4.47014L14.0015 0.207451L12.9955 1.21344ZM2.13134 19.8925C1.94292 19.8925 1.76222 19.8177 1.62898 19.6845C1.49575 19.5512 1.4209 19.3705 1.4209 19.1821H0C0 19.7474 0.224552 20.2895 0.624256 20.6892C1.02396 21.0889 1.56608 21.3134 2.13134 21.3134V19.8925ZM16.3403 21.3134C16.9056 21.3134 17.4477 21.0889 17.8474 20.6892C18.2471 20.2895 18.4716 19.7474 18.4716 19.1821H17.0507C17.0507 19.3705 16.9759 19.5512 16.8427 19.6845C16.7094 19.8177 16.5287 19.8925 16.3403 19.8925V21.3134ZM1.4209 2.13134C1.4209 1.94292 1.49575 1.76222 1.62898 1.62898C1.76222 1.49575 1.94292 1.4209 2.13134 1.4209V0C1.56608 0 1.02396 0.224552 0.624256 0.624256C0.224552 1.02396 0 1.56608 0 2.13134H1.4209ZM4.26269 7.81493V13.4985H5.68358V7.81493H4.26269ZM8.52537 7.81493V13.4985H9.94627V7.81493H8.52537ZM12.7881 7.81493V13.4985H14.209V7.81493H12.7881ZM4.26269 5.68358H8.52537V4.26269H4.26269V5.68358ZM9.94627 17.0507H14.209V15.6299H9.94627V17.0507Z" fill="#F2A900" fill-opacity="0.6"/>
</svg>
