<svg width="18" height="18" viewBox="0 0 18 18" fill="none" xmlns="http://www.w3.org/2000/svg">
    <g clip-path="url(#clip0)">
        <path d="M15.1876 1.12499C14.74 1.12499 14.3108 1.30278 13.9943 1.61924C13.6778 1.93571 13.5001 2.36493 13.5001 2.81249C13.5001 3.26004 13.6778 3.68926 13.9943 4.00573C14.3108 4.3222 14.74 4.49999 15.1876 4.49999C15.6351 4.49999 16.0643 4.3222 16.3808 4.00573C16.6973 3.68926 16.8751 3.26004 16.8751 2.81249C16.8751 2.36493 16.6973 1.93571 16.3808 1.61924C16.0643 1.30278 15.6351 1.12499 15.1876 1.12499ZM12.3751 2.81249C12.375 2.1526 12.6069 1.51369 13.0303 1.00755C13.4537 0.501407 14.0416 0.160259 14.6912 0.0437913C15.3407 -0.0726759 16.0105 0.0429546 16.5834 0.370452C17.1563 0.69795 17.5958 1.21646 17.825 1.83526C18.0542 2.45407 18.0585 3.13376 17.8372 3.75543C17.6158 4.3771 17.183 4.90115 16.6143 5.2359C16.0456 5.57065 15.3773 5.69478 14.7264 5.58657C14.0754 5.47836 13.4832 5.14471 13.0534 4.64399L5.49568 8.15399C5.66943 8.70461 5.66943 9.29537 5.49568 9.84599L13.0534 13.356C13.5078 12.8276 14.1421 12.4867 14.8334 12.3993C15.5247 12.312 16.2239 12.4844 16.7954 12.8831C17.3669 13.2819 17.77 13.8786 17.9266 14.5576C18.0832 15.2366 17.9821 15.9496 17.643 16.5584C17.3038 17.1671 16.7508 17.6283 16.091 17.8526C15.4312 18.0768 14.7117 18.0481 14.0719 17.7721C13.432 17.496 12.9175 16.9923 12.6279 16.3585C12.3383 15.7246 12.2943 15.0059 12.5044 14.3415L4.94668 10.8315C4.57254 11.2675 4.07385 11.5785 3.51768 11.7226C2.96151 11.8667 2.37455 11.837 1.83576 11.6375C1.29697 11.438 0.832189 11.0783 0.50395 10.6068C0.175711 10.1353 -0.000244141 9.57452 -0.000244141 8.99999C-0.000244141 8.42545 0.175711 7.8647 0.50395 7.39316C0.832189 6.92163 1.29697 6.56193 1.83576 6.36245C2.37455 6.16297 2.96151 6.13329 3.51768 6.27739C4.07385 6.42149 4.57254 6.73247 4.94668 7.16849L12.5044 3.65849C12.4184 3.38474 12.3748 3.09944 12.3751 2.81249ZM2.81255 7.31249C2.365 7.31249 1.93578 7.49028 1.61931 7.80674C1.30284 8.12321 1.12505 8.55243 1.12505 8.99999C1.12505 9.44754 1.30284 9.87676 1.61931 10.1932C1.93578 10.5097 2.365 10.6875 2.81255 10.6875C3.26011 10.6875 3.68933 10.5097 4.0058 10.1932C4.32226 9.87676 4.50005 9.44754 4.50005 8.99999C4.50005 8.55243 4.32226 8.12321 4.0058 7.80674C3.68933 7.49028 3.26011 7.31249 2.81255 7.31249ZM15.1876 13.5C14.74 13.5 14.3108 13.6778 13.9943 13.9942C13.6778 14.3107 13.5001 14.7399 13.5001 15.1875C13.5001 15.635 13.6778 16.0643 13.9943 16.3807C14.3108 16.6972 14.74 16.875 15.1876 16.875C15.6351 16.875 16.0643 16.6972 16.3808 16.3807C16.6973 16.0643 16.8751 15.635 16.8751 15.1875C16.8751 14.7399 16.6973 14.3107 16.3808 13.9942C16.0643 13.6778 15.6351 13.5 15.1876 13.5Z" fill="#858585"/>
    </g>
    <defs>
        <clipPath id="clip0">
            <rect width="18" height="18" fill="white"/>
        </clipPath>
    </defs>
</svg>
